<svg width="202" height="296" viewBox="0 0 202 296" fill="none" xmlns="http://www.w3.org/2000/svg">
<path d="M71.5399 213.516L83.2372 268.958C83.2372 268.958 110.919 273.192 117.015 281.967C117.015 281.967 91.1666 272.307 85.4626 273.339C80.7226 274.2 99.7252 276.336 109.093 290.802C109.093 290.802 90.5932 279.118 84.9506 277.463C84.9506 277.463 90.3959 287.098 89.0052 295.45C84.3786 284.876 82.9012 281.382 77.1452 275.792C71.5359 270.335 58.8652 270.619 55.2146 271.583C51.5652 272.53 64.9106 260.692 78.5146 268.991L63.7092 209.548C63.7092 209.548 57.0572 263.05 36.0026 266.21C14.9412 269.378 24.3266 257.419 24.3266 257.419C24.3266 257.419 -0.849427 266.736 3.88657 250.419C8.62124 234.094 33.8972 207.249 37.0572 200.93C40.2119 194.618 30.2119 186.714 30.2119 186.714C30.2119 186.714 23.8919 206.724 7.57057 223.564C-15.1761 247.054 16.7372 119.71 58.1132 63.5218C58.1132 63.5218 95.4892 -41.7795 168.675 18.7738L201.313 22.4592C201.313 22.4592 181.837 28.7712 172.884 31.4059C172.884 31.4059 162.356 50.3565 172.351 66.6725C183.501 84.8565 217.64 157.234 127.613 210.41L148.087 267.174C148.087 267.174 176.069 267.966 183.209 275.923C183.209 275.923 156.369 269.526 150.835 271.247C146.227 272.686 165.36 272.462 176.443 285.66C176.443 285.66 156.637 276.344 150.835 275.396C150.835 275.396 157.42 284.283 157.076 292.755C151.179 282.827 149.275 279.547 142.887 274.708C136.636 269.98 124.099 271.824 120.604 273.227C117.091 274.622 128.88 261.226 143.403 267.794L123.927 213.043C123.927 213.043 110.667 221.619 71.5399 213.516Z" fill="#1D1D1B"/>
</svg>
