<svg width="611" height="611" viewBox="0 0 611 611" fill="none" xmlns="http://www.w3.org/2000/svg">
<path d="M610.57 305.442C610.57 473.799 474.089 610.28 305.731 610.28C137.374 610.28 0.892578 473.799 0.892578 305.442C0.892578 137.084 137.374 0.602982 305.731 0.602982C474.089 0.602982 610.57 137.084 610.57 305.442Z" fill="#F9B000"/>
<path d="M49.8962 194.934L56.7589 179.816L102.404 200.54C108.215 203.18 112.547 205.662 115.399 207.99C118.252 210.318 120.026 213.259 120.72 216.815C121.415 220.372 120.566 224.786 118.171 230.06C117.135 232.344 115.386 235.258 112.928 238.8L100.282 233.058C101.851 230.855 103.007 228.93 103.754 227.282C104.959 224.63 105.042 222.55 104.003 221.046C102.964 219.542 100.144 217.746 95.5429 215.654L49.8962 194.934Z" fill="#1D1D1B"/>
<path d="M123.759 165.095C121.491 169.058 120.384 172.26 120.44 174.703C120.496 177.146 121.947 179.412 124.793 181.499C128.589 184.283 131.512 184.278 133.563 181.479C134.676 179.964 134.832 177.962 134.032 175.478C133.232 172.994 130.548 170.075 125.983 166.727L123.759 165.095ZM107.389 168.05L97.4919 179.112C93.3852 175.232 91.3172 170.751 91.2879 165.678C91.2599 160.603 93.0786 155.564 96.7426 150.566C99.8413 146.343 103.139 143.547 106.635 142.178C110.133 140.81 113.197 140.574 115.829 141.475C118.463 142.378 122.025 144.475 126.517 147.77L144.499 160.956C150.091 165.056 153.607 167.248 155.048 167.526L146.477 179.215C144.951 178.739 142.492 177.258 139.101 174.77C142.312 181.371 141.915 187.403 137.908 192.864C135.337 196.371 132.199 198.451 128.491 199.111C124.783 199.768 120.92 198.626 116.905 195.68C111.877 191.995 109.207 187.48 108.893 182.136C108.581 176.795 111.38 169.531 117.289 160.352L115.593 159.107C112.589 156.904 110.284 155.682 108.679 155.436C107.073 155.194 105.631 155.946 104.348 157.692C102.004 160.89 103.017 164.343 107.389 168.05Z" fill="#1D1D1B"/>
<path d="M122.241 122.033L148.358 98.9454L154.991 106.448L162.511 146.252L178.455 132.157L185.786 140.448L157.803 165.184L150.474 156.893L143.277 118.207L129.571 130.324L122.241 122.033Z" fill="#1D1D1B"/>
<path d="M159.05 91.4264L188.957 73.5158L194.102 82.1078L194.199 122.616L212.458 111.681L218.143 121.176L186.102 140.364L180.417 130.873L180.431 91.5211L164.735 100.921L159.05 91.4264Z" fill="#1D1D1B"/>
<path d="M259.184 72.4578C259.068 71.8031 258.97 71.2964 258.884 70.9378C257.246 63.9324 254.064 60.9831 249.34 62.0898C244.69 63.1778 243.283 67.7311 245.123 75.7498L259.184 72.4578ZM275.571 77.8831L247.071 84.5564L247.775 87.5604C248.915 92.4284 250.339 95.5311 252.048 96.8684C253.758 98.2044 255.687 98.6204 257.834 98.1191C262.45 97.0378 264.323 93.3431 263.448 87.0284L277.172 84.7258C277.728 97.9324 272.016 105.936 260.035 108.74C252.646 110.47 246.447 109.29 241.44 105.195C236.432 101.102 232.95 94.8711 230.991 86.5031C228.779 77.0564 229.126 69.3698 232.034 63.4431C234.939 57.5138 239.819 53.7484 246.671 52.1444C252.842 50.6991 258.514 51.6924 263.686 55.1218C268.859 58.5524 272.822 66.1391 275.571 77.8831Z" fill="#1D1D1B"/>
<path d="M287.498 46.1731L302.27 46.4131L302.146 54.0464C304.822 48.2624 309.535 45.4237 316.283 45.5331C319.935 45.5904 322.937 46.4624 325.29 48.1397C327.643 49.8211 329.131 51.9384 329.751 54.4944C330.375 57.0491 330.646 60.9277 330.559 66.1277L329.966 102.753L314.365 102.5L314.958 65.8744C315.019 62.1144 314.577 59.7811 313.633 58.8811C312.689 57.9811 311.405 57.5157 309.783 57.4917C306.979 57.4437 305.122 58.2744 304.207 59.9731C303.295 61.6744 302.801 64.8664 302.725 69.5504L302.194 102.302L286.593 102.048L287.498 46.1731Z" fill="#1D1D1B"/>
<path d="M375.175 34.1837L391.534 40.1463L382.734 98.225L413.731 48.2343L427.11 53.1077L383.706 118.09L366.369 111.361L375.175 34.1837Z" fill="#1D1D1B"/>
<path d="M442.118 110.921C442.514 110.384 442.812 109.963 443.013 109.655C446.948 103.631 446.884 99.2933 442.824 96.64C438.824 94.028 434.56 96.1546 430.029 103.02L442.118 110.921ZM449.506 126.52L425.005 110.512L423.314 113.096C420.58 117.28 419.321 120.452 419.532 122.613C419.746 124.771 420.777 126.453 422.624 127.659C426.592 130.255 430.558 129.057 434.521 124.067L445.664 132.401C436.496 141.924 426.76 143.316 416.457 136.588C410.105 132.436 406.68 127.136 406.184 120.688C405.688 114.239 407.79 107.417 412.492 100.221C417.8 92.1 423.598 87.0453 429.896 85.0546C436.189 83.0653 442.282 83.9933 448.173 87.8426C453.478 91.3093 456.676 96.0973 457.768 102.207C458.858 108.317 456.105 116.421 449.506 126.52Z" fill="#1D1D1B"/>
<path d="M491.677 97.8485L503.004 108.582L451.049 163.402L439.722 152.669L491.677 97.8485Z" fill="#1D1D1B"/>
<path d="M495.019 175.11C491.934 171.743 489.22 169.712 486.879 169.022C484.534 168.331 481.935 169.024 479.078 171.099C475.274 173.867 474.388 176.655 476.427 179.46C477.535 180.98 479.392 181.738 482.002 181.735C484.611 181.727 488.207 180.062 492.788 176.731L495.019 175.11ZM497.188 158.616L489.666 145.823C494.612 143.091 499.508 142.486 504.351 144.004C509.195 145.522 513.439 148.786 517.082 153.799C520.162 158.035 521.822 162.028 522.062 165.778C522.3 169.526 521.591 172.514 519.931 174.747C518.271 176.982 515.188 179.735 510.684 183.011L492.648 196.126C487.04 200.203 483.882 202.884 483.178 204.174L474.652 192.45C475.571 191.14 477.732 189.252 481.134 186.779C473.867 187.826 468.244 185.612 464.262 180.131C461.704 176.616 460.678 172.994 461.179 169.262C461.68 165.527 463.944 162.195 467.974 159.268C473.015 155.603 478.128 154.434 483.314 155.763C488.496 157.091 494.562 161.967 501.508 170.392L503.21 169.155C506.223 166.963 508.088 165.139 508.811 163.686C509.531 162.232 509.256 160.628 507.98 158.876C505.65 155.667 502.051 155.582 497.188 158.616Z" fill="#1D1D1B"/>
<path d="M533.928 181.039L540.236 195.338L512.078 215.927L546.188 208.831L551.616 221.135L492.922 228.641C487.31 229.342 483.278 229.607 480.827 229.439C478.376 229.273 476.039 228.429 473.818 226.909C471.598 225.387 469.771 223.009 468.342 219.767C467.464 217.777 466.84 215.631 466.474 213.337L477.711 208.379C478.134 209.886 478.622 211.262 479.172 212.513C480.392 215.278 481.682 216.977 483.04 217.609C484.4 218.238 486.806 218.335 490.256 217.902L533.928 181.039Z" fill="#1D1D1B"/>
<path d="M97.5755 399.043L102.309 407.379L85.6715 421.594L106.307 414.422L111.037 422.746L93.9581 436.144L114.975 429.686L118.786 436.387L83.7275 446.135L79.6555 438.96L98.2888 423.155L75.2208 431.151L71.2675 424.194L97.5755 399.043Z" fill="#1D1D1B"/>
<path d="M118.364 435.724L124.556 443.043L110.828 460.084L129.785 449.226L135.971 456.536L121.661 472.856L141.127 462.627L146.105 468.512L113.451 484.559L108.124 478.266L123.516 459.288L102.324 471.411L97.1533 465.298L118.364 435.724Z" fill="#1D1D1B"/>
<path d="M145.546 467.919L152.972 473.979L142.595 493.245L159.246 479.1L166.663 485.152L155.582 503.817L172.846 490.201L178.818 495.072L149.652 516.829L143.263 511.615L154.922 490.143L136.303 505.936L130.104 500.876L145.546 467.919Z" fill="#1D1D1B"/>
<path d="M168.944 517.029L177.229 522.171L171.668 531.139L163.381 526L168.944 517.029Z" fill="#1D1D1B"/>
<path d="M208.485 507.619L199.59 503.065L204.032 494.389L212.93 498.944L208.485 507.619ZM198.329 505.68L207.101 510.172L191.54 540.563C189.884 543.796 188.466 546.129 187.285 547.569C186.102 549.007 184.608 549.856 182.8 550.12C180.988 550.383 179.054 549.989 177.004 548.94C175.697 548.271 174.205 547.324 172.529 546.099L176.208 538.913C176.612 539.2 176.98 539.427 177.313 539.596C178.598 540.253 179.565 540.343 180.216 539.867C180.866 539.387 181.76 538.039 182.897 535.82L198.329 505.68Z" fill="#1D1D1B"/>
<path d="M223.553 536.986C220.753 536.29 218.619 536.17 217.143 536.624C215.668 537.081 214.543 538.35 213.763 540.44C212.724 543.225 213.231 544.998 215.283 545.765C216.397 546.18 217.64 545.932 219.012 545.018C220.384 544.102 221.695 541.972 222.945 538.618L223.553 536.986ZM218.94 527.548L210.516 523.44C212.167 520.277 214.532 518.246 217.612 517.358C220.691 516.469 224.064 516.704 227.731 518.07C230.831 519.226 233.099 520.748 234.533 522.638C235.967 524.526 236.636 526.35 236.541 528.105C236.448 529.862 235.785 532.385 234.557 535.68L229.637 548.878C228.108 552.981 227.383 555.496 227.461 556.417L218.883 553.222C218.909 552.214 219.387 550.466 220.315 547.978C216.857 551.062 213.123 551.861 209.113 550.365C206.543 549.408 204.736 547.858 203.697 545.714C202.657 543.576 202.689 541.03 203.787 538.086C205.161 534.4 207.447 531.996 210.64 530.89C213.832 529.778 218.725 530.228 225.321 532.238L225.785 530.996C226.608 528.79 226.955 527.177 226.827 526.161C226.697 525.145 225.993 524.398 224.712 523.92C222.364 523.045 220.441 524.256 218.94 527.548Z" fill="#1D1D1B"/>
<path d="M246.112 524.947L267.594 529.771L266.206 535.942L248.62 554.52L261.734 557.467L260.204 564.288L237.189 559.119L238.718 552.302L255.854 534.299L244.581 531.767L246.112 524.947Z" fill="#1D1D1B"/>
<path d="M272.002 530.394L293.901 532.664L293.249 538.956L277.957 559.466L291.326 560.852L290.606 567.805L267.142 565.372L267.864 558.42L282.774 538.534L271.281 537.346L272.002 530.394Z" fill="#1D1D1B"/>
<path d="M317.615 545.982C317.626 545.562 317.626 545.235 317.62 545.005C317.487 540.462 315.888 538.237 312.824 538.326C309.808 538.415 308.366 541.061 308.496 546.255L317.615 545.982ZM327.075 551.399L308.598 551.947L308.656 553.897C308.747 557.053 309.239 559.153 310.128 560.194C311.02 561.238 312.162 561.739 313.555 561.695C316.548 561.606 318.17 559.553 318.423 555.537L327.207 555.835C325.89 564.079 321.35 568.315 313.579 568.546C308.79 568.689 305.1 567.178 302.516 564.015C299.932 560.854 298.56 556.559 298.398 551.134C298.216 545.007 299.399 540.295 301.942 536.989C304.486 533.686 307.978 531.967 312.424 531.834C316.423 531.717 319.807 533.046 322.578 535.819C325.352 538.594 326.847 543.787 327.075 551.399Z" fill="#1D1D1B"/>
<path d="M332.949 531.377L342.135 529.723L342.989 534.472C343.939 530.559 346.517 528.225 350.712 527.471C352.981 527.064 354.948 527.236 356.611 527.993C358.273 528.743 359.455 529.873 360.151 531.385C360.849 532.892 361.487 535.263 362.069 538.493L366.163 561.265L356.463 563.007L352.369 540.239C351.948 537.903 351.392 536.507 350.695 536.067C349.999 535.624 349.149 535.493 348.139 535.675C346.395 535.987 345.345 536.724 344.989 537.895C344.629 539.056 344.711 541.097 345.237 544.007L348.896 564.368L339.199 566.115L332.949 531.377Z" fill="#1D1D1B"/>
<path d="M363.01 525.729L372.028 522.813L383.049 541.125L381.322 519.811L389.114 517.296L390.754 553.855L383.341 556.251L363.01 525.729Z" fill="#1D1D1B"/>
<path d="M414.265 520.516C414.104 520.127 413.973 519.828 413.876 519.619C411.915 515.52 409.553 514.131 406.791 515.453C404.067 516.753 403.816 519.751 406.036 524.448L414.265 520.516ZM425.108 521.641L408.428 529.62L409.272 531.377C410.633 534.227 411.932 535.948 413.168 536.544C414.404 537.135 415.649 537.128 416.905 536.527C419.607 535.235 420.261 532.703 418.869 528.929L427.024 525.645C429.153 533.72 426.715 539.429 419.701 542.783C415.376 544.851 411.393 544.963 407.748 543.116C404.105 541.264 401.115 537.892 398.772 532.996C396.129 527.471 395.305 522.68 396.296 518.628C397.285 514.581 399.787 511.596 403.793 509.68C407.405 507.953 411.04 507.797 414.695 509.215C418.351 510.627 421.824 514.773 425.108 521.641Z" fill="#1D1D1B"/>
<path d="M415.691 490.093L424.038 484.851L449.401 525.25L441.054 530.491L415.691 490.093Z" fill="#1D1D1B"/>
<path d="M462.418 494.713C460.39 496.762 459.195 498.54 458.831 500.038C458.466 501.536 458.987 503.157 460.382 504.892C462.245 507.206 464.03 507.677 465.738 506.306C466.662 505.561 467.083 504.364 466.999 502.72C466.915 501.074 465.754 498.857 463.51 496.069L462.418 494.713ZM451.946 493.853L444.11 498.993C442.233 495.958 441.701 492.889 442.509 489.786C443.315 486.684 445.243 483.908 448.295 481.453C450.871 479.378 453.339 478.206 455.695 477.942C458.054 477.674 459.962 478.03 461.421 479.009C462.881 479.986 464.715 481.846 466.918 484.586L475.75 495.56C478.493 498.974 480.283 500.878 481.117 501.285L473.987 507.022C473.134 506.488 471.873 505.182 470.207 503.11C471.093 507.661 469.87 511.278 466.537 513.96C464.398 515.678 462.145 516.441 459.773 516.241C457.402 516.038 455.233 514.712 453.261 512.261C450.794 509.194 449.897 506.006 450.577 502.694C451.253 499.384 454.141 495.409 459.243 490.764L458.407 489.73C456.934 487.898 455.726 486.776 454.787 486.369C453.846 485.957 452.843 486.18 451.777 487.037C449.827 488.608 449.883 490.881 451.946 493.853Z" fill="#1D1D1B"/>
<path d="M460.805 472.093L467.607 464.939L486.452 476.347L474.025 458.191L479.877 452.036L498.523 484.423C500.293 487.523 501.431 489.809 501.928 491.276C502.424 492.747 502.5 494.315 502.157 495.98C501.809 497.643 500.868 499.287 499.324 500.909C498.377 501.904 497.28 502.787 496.029 503.561L490.407 498.213C491.184 497.604 491.869 496.983 492.463 496.356C493.777 494.975 494.456 493.808 494.492 492.861C494.529 491.917 494.003 490.491 492.911 488.587L460.805 472.093Z" fill="#1D1D1B"/>
<path d="M500.561 465.267L506.599 457.611L514.884 464.147L508.849 471.803L500.561 465.267Z" fill="#1D1D1B"/>
<path d="M498.531 425.759L501.931 420.546L508.428 424.787L505.031 429.998L528.094 445.039L522.942 452.943L499.876 437.902L497.679 441.269L491.182 437.027L493.376 433.663C490.483 431.745 488.452 430.098 487.288 428.729C486.127 427.361 485.462 425.606 485.296 423.467C485.132 421.331 485.854 419.034 487.458 416.574C488.399 415.129 489.402 413.806 490.46 412.609L496.902 416.809C496.39 417.421 495.95 418.011 495.582 418.574C494.551 420.159 494.228 421.387 494.615 422.265C495.003 423.142 496.308 424.309 498.531 425.759Z" fill="#1D1D1B"/>
<path d="M503.987 416.719L507.992 409.035L515.556 412.977C510.963 408.823 509.596 404.973 511.448 401.418C511.673 400.985 511.985 400.517 512.377 400.013L520.9 404.454C520.485 405.047 520.189 405.515 520.017 405.843C517.8 410.099 519.915 413.909 526.359 417.265L539.841 424.291L535.287 433.031L503.987 416.719Z" fill="#1D1D1B"/>
<path d="M246.263 486.779L242.113 500.113L243.365 500.505C245.114 501.052 246.571 500.84 247.741 499.876C248.907 498.913 249.806 497.42 250.434 495.399C251.821 490.953 250.847 488.208 247.517 487.168L246.263 486.779ZM244.009 483.436L248.095 484.712C250.074 485.325 251.546 486.169 252.513 487.239C253.479 488.308 254.051 489.628 254.23 491.201C254.407 492.775 254.233 494.399 253.709 496.083C253.157 497.857 252.39 499.351 251.413 500.567C250.435 501.787 249.251 502.645 247.865 503.147C246.478 503.648 244.746 503.575 242.669 502.929L238.357 501.587L244.009 483.436Z" fill="#1D1D1B"/>
<path d="M263.452 499.667C264.012 497.253 263.506 495.863 261.934 495.498C260.459 495.153 259.37 496.175 258.663 498.554L263.452 499.667ZM265.899 502.251L258.152 500.455C257.723 502.299 257.687 503.594 258.046 504.326C258.402 505.062 258.959 505.515 259.716 505.691C260.98 505.983 261.974 505.318 262.703 503.697L265.215 504.635C263.863 507.382 261.835 508.441 259.132 507.814C257.476 507.429 256.295 506.533 255.583 505.118C254.874 503.703 254.783 501.854 255.314 499.565C255.859 497.214 256.778 495.513 258.072 494.462C259.364 493.407 260.842 493.073 262.506 493.459C263.672 493.73 264.579 494.278 265.227 495.106C265.872 495.93 266.238 496.905 266.32 498.025C266.404 499.143 266.263 500.553 265.899 502.251Z" fill="#1D1D1B"/>
<path d="M271.32 503.929C271.177 504.811 271.131 505.519 271.183 506.037C271.233 506.561 271.435 507.031 271.788 507.446C272.141 507.866 272.576 508.117 273.097 508.201C274.719 508.462 275.807 506.886 276.361 503.463C276.899 500.15 276.373 498.365 274.787 498.109C274.085 497.994 273.445 498.237 272.865 498.838C272.288 499.439 271.896 500.366 271.695 501.619L271.32 503.929ZM269.769 495.39L272.408 495.819L272.039 498.099C273.033 496.537 274.312 495.886 275.876 496.139C277.276 496.365 278.307 497.161 278.969 498.523C279.631 499.887 279.779 501.698 279.413 503.959C279.083 505.987 278.415 507.646 277.404 508.942C276.392 510.234 275.067 510.749 273.423 510.482C272.107 510.27 271.171 509.541 270.612 508.293L269.62 514.437L266.76 513.974L269.769 495.39Z" fill="#1D1D1B"/>
<path d="M282.953 497.409L285.837 497.673L285.017 506.577C284.904 507.817 284.929 508.654 285.096 509.094C285.262 509.532 285.69 509.785 286.386 509.846C287.25 509.925 287.888 509.61 288.298 508.892C288.71 508.173 289.01 506.802 289.196 504.778L289.817 498.041L292.701 498.306L291.414 512.309L288.752 512.066L288.945 509.958C288.046 511.526 286.786 512.236 285.161 512.084C284.33 512.008 283.668 511.769 283.168 511.373C282.67 510.969 282.336 510.434 282.165 509.769C281.993 509.097 281.981 507.964 282.129 506.362L282.953 497.409Z" fill="#1D1D1B"/>
<path d="M299.082 496.674L296.034 496.546L296.161 493.471L299.209 493.599L299.082 496.674ZM296.025 498.439L298.918 498.562L298.33 512.615L295.437 512.492L296.025 498.439Z" fill="#1D1D1B"/>
<path d="M310.691 501.943L308.425 502.564C308.002 501.152 307.207 500.447 306.038 500.454C305.499 500.454 305.066 500.623 304.737 500.958C304.409 501.291 304.243 501.703 304.247 502.199C304.249 502.754 304.415 503.163 304.75 503.422C305.085 503.68 305.853 504.004 307.051 504.388C308.527 504.875 309.593 505.43 310.243 506.046C310.898 506.66 311.223 507.522 311.226 508.624C311.229 509.87 310.766 510.922 309.842 511.786C308.915 512.643 307.665 513.078 306.085 513.08C303.106 513.088 301.413 511.73 301.006 509L303.47 508.535C303.79 510.147 304.689 510.952 306.163 510.95C306.917 510.947 307.473 510.76 307.841 510.387C308.206 510.014 308.389 509.574 308.386 509.067C308.386 508.714 308.261 508.363 308.007 508.014C307.755 507.666 307.054 507.31 305.901 506.942C304.797 506.591 303.963 506.266 303.401 505.959C302.838 505.655 302.374 505.212 302.01 504.634C301.647 504.054 301.465 503.396 301.462 502.664C301.459 501.467 301.893 500.447 302.762 499.603C303.633 498.763 304.759 498.336 306.143 498.334C308.493 498.328 310.006 499.531 310.691 501.943Z" fill="#1D1D1B"/>
<path d="M320.648 499.328L317.757 499.036C317.885 497.097 318.417 495.58 319.359 494.476C320.3 493.378 321.581 492.736 323.204 492.566C324.979 492.37 326.424 492.744 327.541 493.674C328.66 494.61 329.309 495.89 329.485 497.512C329.688 499.394 329.159 501.266 327.895 503.121C326.631 504.976 324.745 507.058 322.239 509.362L330.783 508.437L330.941 511.192L319.213 512.465L318.921 509.752C322.244 506.196 324.329 503.648 325.185 502.096C326.04 500.548 326.404 499.197 326.279 498.041C326.179 497.12 325.861 496.386 325.321 495.846C324.784 495.309 324.109 495.086 323.299 495.173C321.579 495.36 320.696 496.744 320.648 499.328Z" fill="#1D1D1B"/>
<path d="M341.992 499.896C341.527 497.146 340.953 495.264 340.279 494.25C339.603 493.234 338.784 492.808 337.823 492.969C336.871 493.134 336.241 493.797 335.929 494.966C335.62 496.136 335.701 498.108 336.172 500.885C336.679 503.87 337.285 505.808 337.989 506.697C338.697 507.585 339.48 507.958 340.34 507.81C341.321 507.644 341.956 506.964 342.245 505.772C342.537 504.577 342.455 502.617 341.992 499.896ZM345.156 499.141C345.749 502.638 345.657 505.254 344.885 506.997C344.112 508.738 342.727 509.78 340.733 510.117C336.659 510.808 334.085 507.994 333.013 501.666C332.42 498.164 332.509 495.542 333.289 493.802C334.065 492.064 335.451 491.028 337.436 490.692C341.511 490.001 344.081 492.816 345.156 499.141Z" fill="#1D1D1B"/>
<path d="M350.236 488.204L352.466 487.667L356.424 504.074L359.429 503.35L359.977 505.624L350.773 507.844L350.225 505.568L353.433 504.795L350.381 492.136C349.79 493.34 348.905 494.476 347.721 495.546L347.036 492.702C348.414 491.455 349.481 489.954 350.236 488.204Z" fill="#1D1D1B"/>
<path d="M362.464 484.804L364.659 484.113L369.719 500.216L372.668 499.289L373.371 501.52L364.336 504.36L363.634 502.129L366.782 501.137L362.879 488.72C362.375 489.956 361.564 491.148 360.456 492.299L359.579 489.505C360.871 488.168 361.832 486.597 362.464 484.804Z" fill="#1D1D1B"/>
<path d="M77.0794 330.865V312.867H83.1594L84.0341 305.878H77.0794V301.965C77.0794 300.846 77.1488 300.159 77.2888 299.902C77.2888 299.809 77.3821 299.577 77.5688 299.203C78.0114 298.389 79.1768 297.981 81.0634 297.981H84.3128V291.725C82.5888 291.515 80.7954 291.41 78.9314 291.41C75.2968 291.41 72.7114 292.738 71.1741 295.394C70.2888 296.886 69.8461 298.598 69.8461 300.531V305.878H63.8354V312.867H69.8461V330.865H77.0794ZM106.434 308.989C108.274 314.719 108.962 320.369 108.495 325.937C108.03 331.506 106.097 336.083 102.695 339.671C98.8514 343.329 94.1968 345.338 88.7341 345.699C83.2701 346.061 77.6968 345.309 72.0128 343.445C64.8128 341.395 57.8421 338.471 51.0968 334.674C44.3528 330.877 40.5314 325.494 39.6341 318.529C38.7381 311.563 43.4501 302.302 53.7701 290.746C65.3261 280.426 74.5861 275.714 81.5528 276.611C88.5181 277.507 93.9008 281.329 97.6981 288.073C101.495 294.818 104.407 301.79 106.434 308.989Z" fill="#1D1D1B"/>
<path d="M544.359 300.636C544.359 298.703 543.689 297.06 542.349 295.708C541.009 294.358 539.361 293.682 537.404 293.682H516.401C514.468 293.682 512.825 294.358 511.475 295.708C510.123 297.06 509.448 298.703 509.448 300.636V321.639C509.448 323.596 510.123 325.244 511.475 326.584C512.825 327.923 514.468 328.594 516.401 328.594H537.404C539.361 328.594 541.009 327.923 542.349 326.584C543.689 325.244 544.359 323.596 544.359 321.639V300.636ZM559.211 308.988C561.051 314.719 561.739 320.37 561.272 325.938C560.807 331.506 558.873 336.083 555.472 339.671C551.628 343.328 546.973 345.338 541.511 345.699C536.047 346.06 530.473 345.31 524.789 343.446C517.589 341.395 510.619 338.471 503.873 334.674C497.129 330.876 493.308 325.495 492.411 318.528C491.515 311.563 496.227 302.302 506.547 290.747C518.103 280.426 527.363 275.714 534.329 276.611C541.295 277.508 546.677 281.328 550.475 288.074C554.272 294.818 557.184 301.79 559.211 308.988Z" fill="#1D1D1B"/>
<path d="M541.006 299.76C541.006 301.236 539.809 302.434 538.333 302.434C536.857 302.434 535.659 301.236 535.659 299.76C535.659 298.284 536.857 297.087 538.333 297.087C539.809 297.087 541.006 298.284 541.006 299.76Z" fill="#1D1D1B"/>
<path d="M535.659 311.172C535.659 315.999 531.747 319.911 526.921 319.911C522.094 319.911 518.182 315.999 518.182 311.172C518.182 306.346 522.094 302.434 526.921 302.434C531.747 302.434 535.659 306.346 535.659 311.172Z" stroke="#1D1D1B" stroke-width="2.66667"/>
</svg>
