<svg width="34" height="34" viewBox="0 0 34 34" fill="none" xmlns="http://www.w3.org/2000/svg">
<path d="M33.6742 16.8992C33.6742 26.2323 26.136 33.7984 16.8371 33.7984C7.53825 33.7984 0 26.2323 0 16.8992C0 7.56605 7.53825 1.05866e-05 16.8371 1.05866e-05C26.136 1.05866e-05 33.6742 7.56605 33.6742 16.8992Z" fill="#F9B000"/>
<path d="M14.511 20.8265L15.1571 23.8999C15.1571 23.8999 16.686 24.1347 17.0227 24.6211C17.0227 24.6211 15.595 24.0856 15.28 24.1428C15.0182 24.1906 16.0677 24.309 16.5852 25.1109C16.5852 25.1109 15.5634 24.4632 15.2517 24.3714C15.2517 24.3714 15.5525 24.9056 15.4756 25.3686C15.2201 24.7824 15.1385 24.5887 14.8206 24.2788C14.5108 23.9763 13.8109 23.992 13.6093 24.0455C13.4077 24.098 14.1448 23.4417 14.8962 23.9018L14.0785 20.6065C14.0785 20.6065 13.7111 23.5724 12.5482 23.7476C11.3849 23.9232 11.9033 23.2603 11.9033 23.2603C11.9033 23.2603 10.5127 23.7768 10.7743 22.8722C11.0358 21.9672 12.4319 20.479 12.6064 20.1287C12.7807 19.7788 12.2283 19.3406 12.2283 19.3406C12.2283 19.3406 11.8792 20.4499 10.9778 21.3835C9.72141 22.6857 11.4841 15.6262 13.7694 12.5113C13.7694 12.5113 15.8338 6.67376 19.876 10.0306L21.6787 10.2349C21.6787 10.2349 20.603 10.5848 20.1085 10.7309C20.1085 10.7309 19.527 11.7815 20.079 12.686C20.6949 13.694 22.5805 17.7064 17.6081 20.6542L18.7389 23.801C18.7389 23.801 20.2844 23.8449 20.6788 24.2861C20.6788 24.2861 19.1964 23.9314 18.8907 24.0269C18.6361 24.1066 19.6929 24.0942 20.3051 24.8259C20.3051 24.8259 19.2112 24.3094 18.8907 24.2569C18.8907 24.2569 19.2544 24.7495 19.2354 25.2192C18.9097 24.6688 18.8045 24.487 18.4517 24.2187C18.1064 23.9566 17.414 24.0589 17.2209 24.1366C17.0269 24.2139 17.678 23.4713 18.4802 23.8354L17.4045 20.8002C17.4045 20.8002 16.6721 21.2756 14.511 20.8265Z" fill="#1D1D1B"/>
<path d="M2.7066 10.773L3.08565 9.93497L5.60677 11.0838C5.92771 11.2302 6.16698 11.3677 6.3245 11.4968C6.4821 11.6259 6.58005 11.7889 6.61842 11.986C6.65679 12.1833 6.60987 12.4279 6.47761 12.7203C6.42039 12.8469 6.32377 13.0084 6.18804 13.2048L5.48953 12.8865C5.57621 12.7644 5.64006 12.6576 5.6813 12.5663C5.74787 12.4193 5.75244 12.304 5.69507 12.2206C5.6377 12.1372 5.48195 12.0376 5.2278 11.9217L2.7066 10.773Z" fill="#1D1D1B"/>
<path d="M6.78626 9.11888C6.661 9.33856 6.59987 9.5161 6.60296 9.65151C6.60606 9.78693 6.68618 9.91258 6.84341 10.0283C7.05308 10.1826 7.2145 10.1823 7.32777 10.0272C7.38926 9.94318 7.39788 9.83216 7.35369 9.69446C7.3095 9.55675 7.16126 9.39495 6.9091 9.20935L6.78626 9.11888ZM5.88214 9.28268L5.33548 9.89595C5.10866 9.68086 4.99444 9.43243 4.99282 9.15118C4.99127 8.86986 5.09172 8.59053 5.29409 8.31343C5.46524 8.07934 5.64736 7.92434 5.84046 7.84842C6.0337 7.77259 6.20293 7.7595 6.3483 7.80947C6.49375 7.85951 6.69053 7.97578 6.93863 8.15843L7.93179 8.88945C8.24066 9.11674 8.43485 9.23825 8.51446 9.25363L8.04108 9.90164C7.95676 9.87526 7.82096 9.79314 7.63368 9.65521C7.81102 10.0212 7.78907 10.3556 7.56777 10.6583C7.42579 10.8527 7.25243 10.968 7.04763 11.0046C6.84282 11.041 6.62948 10.9777 6.40773 10.8144C6.13002 10.6101 5.98251 10.3598 5.96521 10.0636C5.94798 9.76749 6.10255 9.3648 6.42894 8.85596L6.33527 8.78693C6.16935 8.66482 6.04202 8.59704 5.95335 8.58344C5.86468 8.56999 5.785 8.61167 5.71416 8.7085C5.58469 8.88575 5.64066 9.07719 5.88214 9.28268Z" fill="#1D1D1B"/>
<path d="M6.70239 6.73169L8.14493 5.45177L8.51131 5.86769L8.92666 8.07429L9.80729 7.29293L10.2122 7.75253L8.66662 9.12381L8.2618 8.6642L7.86427 6.51955L7.10729 7.19129L6.70239 6.73169Z" fill="#1D1D1B"/>
<path d="M8.73547 5.03495L10.3873 4.04205L10.6715 4.51836L10.6769 6.76398L11.6854 6.1578L11.9994 6.68415L10.2296 7.74786L9.91562 7.22173L9.91643 5.0402L9.04949 5.5613L8.73547 5.03495Z" fill="#1D1D1B"/>
<path d="M14.2662 3.98339C14.2598 3.9471 14.2544 3.91901 14.2497 3.89913C14.1591 3.51078 13.9834 3.34728 13.7225 3.40863C13.4656 3.46894 13.3879 3.72136 13.4896 4.16589L14.2662 3.98339ZM15.1713 4.28415L13.5972 4.6541L13.6361 4.82063C13.699 5.0905 13.7777 5.2625 13.8721 5.33663C13.9665 5.4107 14.0731 5.43376 14.1916 5.40597C14.4466 5.34602 14.55 5.1412 14.5017 4.79114L15.2598 4.66349C15.2905 5.39562 14.975 5.83933 14.3132 5.99478C13.9051 6.09064 13.5627 6.02523 13.2862 5.79823C13.0096 5.57131 12.8172 5.22591 12.709 4.76202C12.5869 4.23833 12.606 3.8122 12.7666 3.48365C12.9271 3.15495 13.1966 2.94621 13.5751 2.85729C13.9159 2.77717 14.2292 2.83224 14.5148 3.02235C14.8006 3.21253 15.0195 3.63311 15.1713 4.28415Z" fill="#1D1D1B"/>
<path d="M15.83 2.52625L16.6459 2.53955L16.6391 2.96272C16.7869 2.64207 17.0472 2.48471 17.4199 2.49077C17.6216 2.49395 17.7874 2.54229 17.9174 2.63527C18.0474 2.72848 18.1296 2.84586 18.1638 2.98755C18.1983 3.12917 18.2132 3.34419 18.2084 3.63246L18.1757 5.66284L17.314 5.6488L17.3467 3.61842C17.3501 3.40998 17.3257 3.28063 17.2735 3.23073C17.2214 3.18084 17.1505 3.15504 17.0609 3.15371C16.906 3.15105 16.8035 3.1971 16.7529 3.29127C16.7026 3.38559 16.6752 3.56254 16.671 3.8222L16.6417 5.63786L15.78 5.62374L15.83 2.52625Z" fill="#1D1D1B"/>
<path d="M20.6727 1.8616L21.5762 2.19215L21.0902 5.41183L22.8023 2.64052L23.5412 2.91068L21.1439 6.51309L20.1863 6.14004L20.6727 1.8616Z" fill="#1D1D1B"/>
<path d="M24.3702 6.11566C24.392 6.08587 24.4085 6.06251 24.4196 6.04544C24.6369 5.71149 24.6334 5.47104 24.4091 5.32395C24.1882 5.17915 23.9527 5.29705 23.7024 5.67764L24.3702 6.11566ZM24.7782 6.98039L23.4249 6.09297L23.3316 6.23621C23.1805 6.46816 23.111 6.644 23.1226 6.76382C23.1345 6.88342 23.1914 6.9767 23.2934 7.04352C23.5126 7.18743 23.7317 7.12105 23.9505 6.84439L24.566 7.30643C24.0596 7.83434 23.5219 7.9115 22.9528 7.53853C22.602 7.30836 22.4128 7.01454 22.3854 6.65709C22.358 6.29956 22.4741 5.92141 22.7338 5.52249C23.027 5.07227 23.3473 4.79206 23.6951 4.6817C24.0427 4.57142 24.3792 4.62286 24.7046 4.83626C24.9976 5.02844 25.1742 5.29387 25.2345 5.63255C25.2948 5.9713 25.1427 6.42056 24.7782 6.98039Z" fill="#1D1D1B"/>
<path d="M27.1075 5.39098L27.7331 5.986L24.8635 9.02502L24.2379 8.43001L27.1075 5.39098Z" fill="#1D1D1B"/>
<path d="M27.292 9.67407C27.1216 9.48744 26.9718 9.37486 26.8424 9.33658C26.7129 9.29829 26.5694 9.33672 26.4115 9.45174C26.2014 9.60518 26.1525 9.75974 26.2651 9.91526C26.3263 9.99952 26.4289 10.0415 26.573 10.0414C26.7172 10.0409 26.9158 9.94859 27.1688 9.76395L27.292 9.67407ZM27.4118 8.75974L26.9964 8.05052C27.2696 7.89907 27.54 7.86551 27.8075 7.9497C28.075 8.03382 28.3094 8.21476 28.5106 8.49268C28.6807 8.72751 28.7724 8.94889 28.7857 9.15674C28.7989 9.36452 28.7597 9.53016 28.668 9.65397C28.5763 9.77785 28.406 9.93049 28.1573 10.1121L27.1611 10.8391C26.8513 11.0652 26.6769 11.2138 26.638 11.2853L26.1671 10.6353C26.2179 10.5628 26.3372 10.4581 26.5251 10.321C26.1237 10.379 25.8132 10.2563 25.5932 9.95244C25.452 9.7576 25.3953 9.55677 25.423 9.34988C25.4506 9.14284 25.5757 8.95813 25.7982 8.79589C26.0767 8.59269 26.3591 8.52787 26.6455 8.60156C26.9318 8.67518 27.2668 8.94549 27.6505 9.41256L27.7444 9.34397C27.9109 9.22245 28.0139 9.12133 28.0538 9.04077C28.0936 8.9602 28.0784 8.87128 28.0079 8.77415C27.8792 8.59624 27.6804 8.59151 27.4118 8.75974Z" fill="#1D1D1B"/>
<path d="M29.4411 10.0028L29.7895 10.7954L28.2342 11.9368L30.1183 11.5435L30.4181 12.2255L27.1762 12.6416C26.8662 12.6805 26.6435 12.6952 26.5082 12.6859C26.3728 12.6767 26.2437 12.6299 26.121 12.5456C25.9984 12.4613 25.8975 12.3294 25.8186 12.1497C25.7701 12.0394 25.7356 11.9204 25.7154 11.7932L26.3361 11.5184C26.3594 11.6019 26.3864 11.6782 26.4168 11.7475C26.4842 11.9008 26.5554 11.995 26.6304 12.03C26.7055 12.0649 26.8384 12.0703 27.029 12.0463L29.4411 10.0028Z" fill="#1D1D1B"/>
<path d="M5.34009 22.0881L5.60153 22.5502L4.6826 23.3382L5.82238 22.9407L6.0836 23.4021L5.14029 24.1449L6.30114 23.7868L6.51162 24.1583L4.57523 24.6987L4.35032 24.301L5.37949 23.4248L4.10538 23.8681L3.88702 23.4824L5.34009 22.0881Z" fill="#1D1D1B"/>
<path d="M6.4883 24.1216L6.8303 24.5273L6.07206 25.472L7.11913 24.8701L7.46077 25.2753L6.67042 26.1801L7.74555 25.613L8.02053 25.9393L6.21692 26.8288L5.92271 26.4799L6.77286 25.4279L5.60236 26.0999L5.31677 25.761L6.4883 24.1216Z" fill="#1D1D1B"/>
<path d="M7.98959 25.9063L8.39978 26.2423L7.82661 27.3104L8.74628 26.5262L9.15596 26.8617L8.5439 27.8964L9.49744 27.1416L9.8273 27.4116L8.21641 28.6178L7.86351 28.3287L8.50745 27.1384L7.47909 28.0139L7.13672 27.7334L7.98959 25.9063Z" fill="#1D1D1B"/>
<path d="M9.28197 28.6289L9.7396 28.9139L9.43243 29.411L8.97473 29.1262L9.28197 28.6289Z" fill="#1D1D1B"/>
<path d="M11.4659 28.1072L10.9747 27.8548L11.22 27.3738L11.7115 27.6263L11.4659 28.1072ZM10.905 27.9997L11.3895 28.2487L10.53 29.9335C10.4385 30.1127 10.3602 30.2421 10.295 30.3219C10.2297 30.4016 10.1471 30.4487 10.0473 30.4633C9.94718 30.4779 9.84039 30.4561 9.72713 30.3979C9.65496 30.3608 9.57255 30.3083 9.47998 30.2404L9.68316 29.8421C9.70548 29.8579 9.7258 29.8705 9.74421 29.8799C9.81521 29.9163 9.8686 29.9213 9.90454 29.8949C9.94048 29.8683 9.98982 29.7936 10.0526 29.6706L10.905 27.9997Z" fill="#1D1D1B"/>
<path d="M12.2982 29.7352C12.1436 29.6966 12.0257 29.69 11.9441 29.7151C11.8627 29.7405 11.8005 29.8108 11.7574 29.9267C11.7001 30.0811 11.7281 30.1794 11.8414 30.2219C11.903 30.2449 11.9716 30.2311 12.0474 30.1805C12.1232 30.1297 12.1955 30.0116 12.2646 29.8257L12.2982 29.7352ZM12.0434 29.212L11.5781 28.9842C11.6693 28.8089 11.7999 28.6963 11.9701 28.6471C12.1401 28.5978 12.3264 28.6108 12.5289 28.6866C12.7002 28.7507 12.8254 28.835 12.9047 28.9398C12.9838 29.0445 13.0208 29.1456 13.0156 29.2429C13.0104 29.3403 12.9738 29.4801 12.906 29.6628L12.6342 30.3945C12.5498 30.6219 12.5097 30.7613 12.5141 30.8124L12.0402 30.6353C12.0417 30.5794 12.0681 30.4825 12.1193 30.3446C11.9284 30.5155 11.7221 30.5598 11.5006 30.4769C11.3587 30.4238 11.2589 30.3379 11.2015 30.2191C11.1441 30.1005 11.1458 29.9594 11.2064 29.7962C11.2824 29.5918 11.4086 29.4585 11.585 29.3973C11.7613 29.3356 12.0315 29.3605 12.3959 29.472L12.4215 29.4031C12.4669 29.2809 12.4861 29.1914 12.479 29.1351C12.4719 29.0788 12.433 29.0374 12.3622 29.0108C12.2325 28.9624 12.1263 29.0295 12.0434 29.212Z" fill="#1D1D1B"/>
<path d="M13.5442 29.0678L14.7307 29.3352L14.654 29.6773L13.6827 30.7072L14.407 30.8706L14.3225 31.2487L13.0513 30.9622L13.1358 30.5843L14.0823 29.5862L13.4596 29.4459L13.5442 29.0678Z" fill="#1D1D1B"/>
<path d="M14.9742 29.3698L16.1837 29.4956L16.1477 29.8444L15.3031 30.9814L16.0415 31.0582L16.0017 31.4437L14.7057 31.3088L14.7456 30.9234L15.5691 29.821L14.9343 29.7552L14.9742 29.3698Z" fill="#1D1D1B"/>
<path d="M17.4935 30.2339C17.4941 30.2106 17.4941 30.1925 17.4938 30.1797C17.4864 29.9279 17.3981 29.8045 17.2289 29.8095C17.0623 29.8144 16.9827 29.9611 16.9899 30.2491L17.4935 30.2339ZM18.016 30.5342L16.9955 30.5646L16.9987 30.6727C17.0037 30.8476 17.0309 30.964 17.08 31.0218C17.1293 31.0796 17.1923 31.1074 17.2693 31.105C17.4346 31.1 17.5242 30.9862 17.5381 30.7636L18.0233 30.7801C17.9506 31.2372 17.6998 31.472 17.2706 31.4848C17.0061 31.4927 16.8023 31.4089 16.6596 31.2336C16.5169 31.0584 16.4411 30.8203 16.4321 30.5195C16.4221 30.1799 16.4874 29.9187 16.6278 29.7354C16.7683 29.5523 16.9612 29.457 17.2068 29.4496C17.4277 29.4431 17.6146 29.5168 17.7676 29.6705C17.9209 29.8243 18.0034 30.1122 18.016 30.5342Z" fill="#1D1D1B"/>
<path d="M18.3405 29.4243L18.8478 29.3326L18.895 29.5958C18.9474 29.3789 19.0899 29.2496 19.3215 29.2077C19.4469 29.1852 19.5555 29.1947 19.6473 29.2367C19.7392 29.2782 19.8044 29.3409 19.8429 29.4247C19.8815 29.5083 19.9167 29.6397 19.9488 29.8188L20.1749 31.0812L19.6392 31.1777L19.4131 29.9155C19.3898 29.786 19.3591 29.7086 19.3206 29.6843C19.2821 29.6597 19.2352 29.6525 19.1794 29.6625C19.0831 29.6798 19.0251 29.7207 19.0055 29.7856C18.9856 29.85 18.9901 29.9631 19.0192 30.1244L19.2212 31.2532L18.6856 31.35L18.3405 29.4243Z" fill="#1D1D1B"/>
<path d="M20.0008 29.1112L20.4988 28.9495L21.1076 29.9647L21.0122 28.7831L21.4426 28.6437L21.5332 30.6703L21.1237 30.8032L20.0008 29.1112Z" fill="#1D1D1B"/>
<path d="M22.8318 28.8222C22.8229 28.8006 22.8157 28.784 22.8103 28.7724C22.702 28.5452 22.5715 28.4682 22.4189 28.5415C22.2685 28.6136 22.2546 28.7797 22.3773 29.0401L22.8318 28.8222ZM23.4307 28.8845L22.5094 29.3269L22.556 29.4243C22.6312 29.5822 22.7029 29.6777 22.7712 29.7107C22.8395 29.7434 22.9082 29.7431 22.9776 29.7097C23.1268 29.6381 23.163 29.4977 23.0861 29.2886L23.5365 29.1065C23.6541 29.5541 23.5194 29.8707 23.132 30.0565C22.8931 30.1712 22.6732 30.1774 22.4718 30.075C22.2706 29.9724 22.1054 29.7854 21.9761 29.514C21.8301 29.2077 21.7846 28.9421 21.8393 28.7175C21.8939 28.4932 22.0321 28.3277 22.2534 28.2215C22.4529 28.1257 22.6536 28.1171 22.8555 28.1957C23.0574 28.2739 23.2493 28.5038 23.4307 28.8845Z" fill="#1D1D1B"/>
<path d="M22.9105 27.1356L23.3715 26.845L24.7724 29.0846L24.3114 29.3752L22.9105 27.1356Z" fill="#1D1D1B"/>
<path d="M25.4913 27.3917C25.3793 27.5053 25.3133 27.6039 25.2932 27.6869C25.2731 27.7699 25.3019 27.8598 25.3789 27.956C25.4818 28.0843 25.5804 28.1104 25.6747 28.0344C25.7258 27.9931 25.749 27.9267 25.7444 27.8356C25.7397 27.7444 25.6756 27.6214 25.5517 27.4669L25.4913 27.3917ZM24.9129 27.344L24.4801 27.629C24.3765 27.4608 24.3471 27.2906 24.3917 27.1186C24.4363 26.9466 24.5427 26.7927 24.7113 26.6566C24.8536 26.5416 24.9899 26.4766 25.12 26.462C25.2503 26.4472 25.3557 26.4669 25.4363 26.5211C25.5169 26.5753 25.6182 26.6784 25.7399 26.8303L26.2277 27.4387C26.3792 27.628 26.4781 27.7335 26.5241 27.756L26.1304 28.0741C26.0832 28.0445 26.0136 27.9721 25.9216 27.8572C25.9705 28.1095 25.9029 28.31 25.7188 28.4587C25.6007 28.554 25.4762 28.5962 25.3452 28.5852C25.2143 28.5739 25.0945 28.5004 24.9856 28.3645C24.8493 28.1945 24.7998 28.0178 24.8373 27.8342C24.8747 27.6506 25.0342 27.4303 25.316 27.1728L25.2698 27.1155C25.1884 27.0139 25.1217 26.9517 25.0699 26.9292C25.0179 26.9063 24.9625 26.9187 24.9036 26.9662C24.7959 27.0533 24.799 27.1793 24.9129 27.344Z" fill="#1D1D1B"/>
<path d="M25.4023 26.1378L25.7779 25.7412L26.8188 26.3736L26.1325 25.3671L26.4557 25.0259L27.4855 26.8213C27.5833 26.9931 27.6461 27.1199 27.6736 27.2012C27.701 27.2827 27.7052 27.3697 27.6863 27.462C27.6671 27.5542 27.6151 27.6453 27.5298 27.7352C27.4775 27.7904 27.4169 27.8393 27.3478 27.8823L27.0372 27.5858C27.0802 27.552 27.118 27.5176 27.1508 27.4828C27.2234 27.4062 27.2609 27.3416 27.2629 27.2891C27.265 27.2368 27.2359 27.1577 27.1756 27.0521L25.4023 26.1378Z" fill="#1D1D1B"/>
<path d="M27.5981 25.7594L27.9316 25.3349L28.3892 25.6973L28.0559 26.1217L27.5981 25.7594Z" fill="#1D1D1B"/>
<path d="M27.486 23.5692L27.6738 23.2802L28.0326 23.5153L27.845 23.8042L29.1188 24.638L28.8342 25.0762L27.5603 24.2423L27.4389 24.429L27.08 24.1938L27.2013 24.0074C27.0415 23.901 26.9293 23.8097 26.865 23.7338C26.8009 23.658 26.7641 23.5607 26.755 23.4421C26.7459 23.3237 26.7858 23.1964 26.8744 23.06C26.9264 22.9799 26.9817 22.9065 27.0402 22.8402L27.396 23.073C27.3677 23.1069 27.3434 23.1397 27.3231 23.1709C27.2661 23.2587 27.2483 23.3268 27.2697 23.3755C27.2911 23.4241 27.3632 23.4888 27.486 23.5692Z" fill="#1D1D1B"/>
<path d="M27.7874 23.068L28.0086 22.6421L28.4264 22.8606C28.1727 22.6303 28.0972 22.4168 28.1995 22.2198C28.2119 22.1958 28.2291 22.1698 28.2508 22.1419L28.7215 22.3881C28.6986 22.421 28.6823 22.4469 28.6728 22.4651C28.5503 22.7011 28.6671 22.9122 29.023 23.0983L29.7677 23.4878L29.5161 23.9723L27.7874 23.068Z" fill="#1D1D1B"/>
<path d="M13.5526 26.9519L13.3233 27.6911L13.3925 27.7128C13.4891 27.7431 13.5696 27.7314 13.6341 27.6779C13.6986 27.6246 13.7482 27.5418 13.7829 27.4297C13.8595 27.1833 13.8057 27.0311 13.6218 26.9734L13.5526 26.9519ZM13.428 26.7666L13.6537 26.8373C13.763 26.8713 13.8443 26.9181 13.8977 26.9774C13.9511 27.0366 13.9827 27.1098 13.9926 27.197C14.0024 27.2843 13.9927 27.3743 13.9638 27.4676C13.9333 27.566 13.8909 27.6488 13.837 27.7162C13.783 27.7839 13.7176 27.8315 13.641 27.8592C13.5644 27.887 13.4687 27.883 13.354 27.8472L13.1158 27.7728L13.428 26.7666Z" fill="#1D1D1B"/>
<path d="M14.5019 27.6664C14.5329 27.5325 14.5049 27.4555 14.4181 27.4352C14.3366 27.4161 14.2764 27.4728 14.2374 27.6047L14.5019 27.6664ZM14.6371 27.8096L14.2092 27.7101C14.1855 27.8123 14.1835 27.8841 14.2033 27.9246C14.223 27.9654 14.2538 27.9906 14.2956 28.0003C14.3654 28.0165 14.4203 27.9796 14.4606 27.8897L14.5993 27.9418C14.5246 28.094 14.4126 28.1527 14.2633 28.118C14.1719 28.0966 14.1066 28.047 14.0673 27.9685C14.0281 27.8901 14.0231 27.7876 14.0524 27.6607C14.0825 27.5304 14.1333 27.4361 14.2048 27.3778C14.2761 27.3193 14.3577 27.3008 14.4497 27.3222C14.5141 27.3372 14.5642 27.3676 14.6 27.4135C14.6356 27.4592 14.6558 27.5132 14.6603 27.5753C14.665 27.6373 14.6572 27.7155 14.6371 27.8096Z" fill="#1D1D1B"/>
<path d="M14.9365 27.9026C14.9286 27.9515 14.926 27.9908 14.9289 28.0195C14.9317 28.0485 14.9428 28.0746 14.9623 28.0976C14.9819 28.1209 15.0059 28.1348 15.0347 28.1394C15.1242 28.1539 15.1843 28.0666 15.2149 27.8768C15.2446 27.6931 15.2156 27.5942 15.128 27.58C15.0892 27.5736 15.0539 27.5871 15.0218 27.6204C14.99 27.6537 14.9683 27.7051 14.9572 27.7746L14.9365 27.9026ZM14.8508 27.4293L14.9966 27.4531L14.9762 27.5795C15.0311 27.4928 15.1017 27.4568 15.1881 27.4708C15.2655 27.4833 15.3224 27.5274 15.359 27.603C15.3955 27.6786 15.4037 27.779 15.3835 27.9043C15.3652 28.0167 15.3284 28.1087 15.2725 28.1805C15.2166 28.2522 15.1434 28.2807 15.0526 28.2659C14.9799 28.2542 14.9282 28.2137 14.8974 28.1445L14.8426 28.4851L14.6846 28.4595L14.8508 27.4293Z" fill="#1D1D1B"/>
<path d="M15.579 27.5412L15.7383 27.5558L15.693 28.0494C15.6868 28.1182 15.6882 28.1646 15.6974 28.189C15.7066 28.2132 15.7302 28.2273 15.7686 28.2307C15.8164 28.235 15.8516 28.2176 15.8743 28.1777C15.897 28.1379 15.9136 28.0619 15.9238 27.9497L15.9581 27.5762L16.1174 27.5909L16.0464 28.3672L15.8993 28.3537L15.91 28.2369C15.8603 28.3238 15.7907 28.3631 15.701 28.3547C15.6551 28.3505 15.6185 28.3373 15.5909 28.3153C15.5634 28.2929 15.5449 28.2633 15.5355 28.2264C15.526 28.1891 15.5253 28.1263 15.5335 28.0375L15.579 27.5412Z" fill="#1D1D1B"/>
<path d="M16.4699 27.5004L16.3015 27.4933L16.3085 27.3229L16.4769 27.33L16.4699 27.5004ZM16.301 27.5983L16.4608 27.6051L16.4284 28.3842L16.2686 28.3774L16.301 27.5983Z" fill="#1D1D1B"/>
<path d="M17.1111 27.7925L16.9859 27.827C16.9625 27.7487 16.9186 27.7096 16.854 27.71C16.8243 27.71 16.8004 27.7194 16.7822 27.7379C16.764 27.7564 16.7549 27.7792 16.7551 27.8067C16.7552 27.8375 16.7644 27.8602 16.7829 27.8745C16.8014 27.8888 16.8438 27.9068 16.91 27.9281C16.9915 27.9551 17.0504 27.9858 17.0863 28.02C17.1225 28.054 17.1404 28.1018 17.1406 28.1629C17.1407 28.232 17.1152 28.2903 17.0641 28.3382C17.013 28.3857 16.9439 28.4098 16.8566 28.4099C16.6921 28.4104 16.5986 28.3351 16.5761 28.1838L16.7122 28.158C16.7299 28.2473 16.7795 28.292 16.861 28.2918C16.9026 28.2917 16.9333 28.2813 16.9536 28.2606C16.9738 28.2399 16.9839 28.2155 16.9837 28.1875C16.9837 28.1679 16.9768 28.1484 16.9628 28.1291C16.9489 28.1098 16.9102 28.09 16.8465 28.0696C16.7855 28.0502 16.7395 28.0322 16.7084 28.0152C16.6773 27.9983 16.6517 27.9738 16.6316 27.9417C16.6115 27.9095 16.6014 27.8731 16.6013 27.8325C16.6011 27.7661 16.6251 27.7096 16.6731 27.6628C16.7212 27.6162 16.7834 27.5926 16.8599 27.5924C16.9896 27.5921 17.0732 27.6588 17.1111 27.7925Z" fill="#1D1D1B"/>
<path d="M17.661 27.6476L17.5013 27.6314C17.5084 27.5239 17.5378 27.4398 17.5898 27.3786C17.6418 27.3178 17.7126 27.2821 17.8022 27.2727C17.9002 27.2619 17.98 27.2826 18.0417 27.3342C18.1035 27.3861 18.1394 27.457 18.1491 27.5469C18.1603 27.6513 18.1311 27.755 18.0613 27.8579C17.9914 27.9607 17.8873 28.0761 17.7489 28.2039L18.2208 28.1526L18.2295 28.3053L17.5818 28.3759L17.5656 28.2254C17.7492 28.0283 17.8643 27.8871 17.9116 27.801C17.9588 27.7152 17.9789 27.6403 17.972 27.5762C17.9665 27.5252 17.9489 27.4845 17.9191 27.4546C17.8894 27.4248 17.8522 27.4124 17.8074 27.4172C17.7124 27.4276 17.6637 27.5043 17.661 27.6476Z" fill="#1D1D1B"/>
<path d="M18.8399 27.679C18.8142 27.5266 18.7825 27.4223 18.7452 27.3661C18.7079 27.3098 18.6627 27.2861 18.6096 27.2951C18.557 27.3042 18.5222 27.341 18.505 27.4058C18.4879 27.4706 18.4924 27.5799 18.5184 27.7339C18.5464 27.8994 18.5799 28.0068 18.6188 28.0561C18.6579 28.1053 18.7011 28.126 18.7486 28.1178C18.8028 28.1086 18.8379 28.0709 18.8539 28.0048C18.87 27.9386 18.8654 27.8299 18.8399 27.679ZM19.0146 27.6372C19.0474 27.8311 19.0423 27.9761 18.9997 28.0727C18.957 28.1693 18.8805 28.227 18.7704 28.2457C18.5453 28.284 18.4032 28.128 18.344 27.7772C18.3112 27.583 18.3161 27.4377 18.3592 27.3413C18.4021 27.2449 18.4786 27.1874 18.5882 27.1688C18.8133 27.1305 18.9553 27.2866 19.0146 27.6372Z" fill="#1D1D1B"/>
<path d="M19.2952 27.0309L19.4184 27.0011L19.637 27.9107L19.803 27.8705L19.8333 27.9966L19.3249 28.1197L19.2946 27.9935L19.4718 27.9506L19.3032 27.2489C19.2706 27.3156 19.2217 27.3786 19.1563 27.4379L19.1185 27.2802C19.1946 27.2111 19.2535 27.1279 19.2952 27.0309Z" fill="#1D1D1B"/>
<path d="M19.9706 26.8424L20.0919 26.8041L20.3713 27.6968L20.5342 27.6454L20.5731 27.7691L20.074 27.9265L20.0352 27.8029L20.2091 27.7479L19.9935 27.0595C19.9657 27.128 19.9209 27.1941 19.8597 27.2579L19.8113 27.103C19.8826 27.0289 19.9357 26.9418 19.9706 26.8424Z" fill="#1D1D1B"/>
<path d="M4.20799 18.3085V17.3108H4.54381L4.59212 16.9234H4.20799V16.7064C4.20799 16.6444 4.21182 16.6064 4.21956 16.5921C4.21956 16.5869 4.22471 16.574 4.23502 16.5534C4.25947 16.5082 4.32383 16.4856 4.42804 16.4856H4.60751V16.1388C4.51229 16.1272 4.41324 16.1213 4.31028 16.1213C4.10953 16.1213 3.96674 16.1949 3.88182 16.3422C3.83293 16.4249 3.80848 16.5198 3.80848 16.627V16.9234H3.47649V17.3108H3.80848V18.3085H4.20799ZM5.82934 17.0958C5.93096 17.4135 5.96896 17.7267 5.94319 18.0354C5.91749 18.3441 5.8107 18.5978 5.62284 18.7968C5.41052 18.9995 5.15343 19.1109 4.85171 19.1309C4.54992 19.151 4.24209 19.1093 3.92815 19.0059C3.53047 18.8923 3.14546 18.7302 2.7729 18.5197C2.40041 18.3092 2.18934 18.0108 2.13978 17.6247C2.09029 17.2385 2.35055 16.7251 2.92055 16.0845C3.55882 15.5124 4.07028 15.2512 4.45507 15.3009C4.83978 15.3506 5.13708 15.5624 5.34682 15.9363C5.55656 16.3102 5.7174 16.6967 5.82934 17.0958Z" fill="#1D1D1B"/>
<path d="M30.0172 16.6328C30.0172 16.5256 29.9802 16.4346 29.9062 16.3596C29.8322 16.2847 29.7412 16.2473 29.6331 16.2473H28.473C28.3662 16.2473 28.2755 16.2847 28.2009 16.3596C28.1262 16.4346 28.089 16.5256 28.089 16.6328V17.7971C28.089 17.9056 28.1262 17.997 28.2009 18.0713C28.2755 18.1455 28.3662 18.1827 28.473 18.1827H29.6331C29.7412 18.1827 29.8322 18.1455 29.9062 18.0713C29.9802 17.997 30.0172 17.9056 30.0172 17.7971V16.6328ZM30.8375 17.0958C30.9391 17.4135 30.9771 17.7268 30.9514 18.0354C30.9257 18.3441 30.8189 18.5978 30.631 18.7968C30.4187 18.9995 30.1616 19.1109 29.8599 19.1309C29.5581 19.151 29.2503 19.1093 28.9363 19.006C28.5386 18.8923 28.1536 18.7302 27.7811 18.5197C27.4086 18.3092 27.1975 18.0109 27.148 17.6247C27.0985 17.2385 27.3587 16.7251 27.9287 16.0846C28.567 15.5124 29.0785 15.2512 29.4632 15.3009C29.848 15.3507 30.1453 15.5624 30.355 15.9364C30.5647 16.3102 30.7256 16.6967 30.8375 17.0958Z" fill="#1D1D1B"/>
<path d="M29.832 16.5843C29.832 16.6661 29.7659 16.7325 29.6843 16.7325C29.6028 16.7325 29.5367 16.6661 29.5367 16.5843C29.5367 16.5024 29.6028 16.4361 29.6843 16.4361C29.7659 16.4361 29.832 16.5024 29.832 16.5843Z" fill="#1D1D1B"/>
<path d="M29.5367 17.2169C29.5367 17.4845 29.3207 17.7013 29.0541 17.7013C28.7875 17.7013 28.5714 17.4845 28.5714 17.2169C28.5714 16.9493 28.7875 16.7324 29.0541 16.7324C29.3207 16.7324 29.5367 16.9493 29.5367 17.2169Z" stroke="#1D1D1B" stroke-width="2.66667"/>
</svg>
