<svg width="215" height="315" viewBox="0 0 215 315" fill="none" xmlns="http://www.w3.org/2000/svg">
<path d="M76.1858 227.384L88.6418 286.424C88.6418 286.424 118.122 290.936 124.614 300.28C124.614 300.28 97.0871 289.992 91.0124 291.091C85.9644 292.009 106.202 294.283 116.178 309.687C116.178 309.687 96.4778 297.245 90.4671 295.483C90.4671 295.483 96.2671 305.744 94.7858 314.637C89.8564 303.379 88.2844 299.656 82.1551 293.705C76.1818 287.892 62.6884 288.193 58.8004 289.221C54.9124 290.229 69.1258 277.623 83.6124 286.461L67.8458 223.157C67.8458 223.157 60.7631 280.135 38.3404 283.5C15.9111 286.873 25.9058 274.137 25.9058 274.137C25.9058 274.137 -0.904914 284.059 4.13775 266.684C9.18175 249.299 36.0978 220.708 39.4631 213.977C42.8231 207.257 32.1738 198.84 32.1738 198.84C32.1738 198.84 25.4431 220.149 8.06309 238.084C-16.1622 263.097 17.8231 127.484 61.8858 67.6468C61.8858 67.6468 101.69 -44.4932 179.63 19.9934L214.388 23.9174C214.388 23.9174 193.648 30.6388 184.111 33.4441C184.111 33.4441 172.899 53.6268 183.543 71.0014C195.419 90.3668 231.772 167.444 135.899 224.075L157.704 284.525C157.704 284.525 187.503 285.369 195.107 293.843C195.107 293.843 166.524 287.029 160.631 288.863C155.723 290.395 176.098 290.156 187.9 304.213C187.9 304.213 166.811 294.292 160.631 293.283C160.631 293.283 167.643 302.745 167.276 311.768C160.998 301.196 158.97 297.703 152.166 292.549C145.508 287.516 132.158 289.477 128.436 290.972C124.695 292.459 137.25 278.191 152.715 285.188L131.975 226.879C131.975 226.879 117.855 236.012 76.1858 227.384Z" fill="#F6A800"/>
</svg>
